P2
# Fichier cree par transformation_image
60 60
255
25 49 22 36 36 21 44 41 34 27 41 25 39 30 35 39 45 27 42 17 35 52 24 33 27 43 36 18 39 29 48 28 34 24 43 34 37 23 39 39 36 39 26 36 45 25 32 34 38 38 26 42 35 41 32 36 37 39 39 35 
40 31 2 39 50 12 22 32 1 44 0 45 56 1 27 31 0 50 0 43 49 0 45 0 57 8 14 52 0 59 21 0 39 43 6 23 16 31 31 4 50 0 41 46 0 43 4 37 48 0 64 36 0 44 0 40 24 17 23 37 
1 41 35 29 27 17 40 32 29 36 50 28 1 48 43 45 33 33 38 42 40 30 30 38 6 38 29 32 33 37 0 50 41 111 104 112 63 43 51 27 32 36 0 49 32 46 51 32 2 47 13 37 40 38 51 30 45 19 11 33 
35 25 10 27 56 34 39 34 0 45 29 32 42 29 4 27 41 27 0 40 0 47 4 39 30 45 40 39 3 34 152 181 240 254 253 255 255 213 143 48 30 37 59 29 23 23 5 30 28 46 2 37 60 22 4 36 17 34 43 34 
31 38 45 35 39 6 29 49 48 29 43 27 18 26 47 38 57 0 60 12 60 24 41 34 38 23 2 49 23 143 255 249 255 255 255 237 255 252 245 255 89 13 40 21 13 45 32 54 40 25 48 31 3 35 18 44 17 37 46 34 
36 39 34 0 33 36 44 19 0 44 33 6 45 29 31 3 19 34 15 49 29 1 47 23 1 35 14 40 169 246 242 255 252 243 255 255 249 239 180 224 246 192 0 46 52 22 43 10 7 47 28 37 27 42 56 35 44 26 18 34 
31 16 33 19 41 6 28 57 45 0 54 31 26 49 8 55 39 7 50 32 3 38 22 44 28 41 55 113 242 255 254 255 253 254 255 255 241 208 147 183 252 255 88 37 35 21 10 45 38 10 5 39 52 29 0 36 18 22 32 37 
34 31 45 6 38 29 41 34 0 39 31 38 28 32 20 24 44 22 40 40 21 46 43 31 3 37 29 211 255 255 252 252 254 255 254 247 255 224 222 249 226 247 184 29 6 46 25 40 35 11 46 27 0 45 41 44 24 41 45 33 
24 7 32 34 49 33 33 0 46 36 33 35 6 38 44 33 0 46 33 10 34 22 3 43 37 29 36 255 245 243 251 255 255 240 255 255 247 255 255 248 250 255 255 100 54 30 38 42 2 46 37 38 48 16 52 27 43 38 4 39 
48 32 44 32 27 17 38 32 18 49 19 10 41 18 7 31 24 40 43 22 41 58 29 23 46 19 63 255 255 255 255 242 255 255 255 234 255 236 255 255 255 244 255 248 37 0 13 49 25 43 32 3 35 48 1 31 0 32 37 37 
26 1 38 0 53 9 58 39 46 0 55 38 27 39 38 45 50 24 0 47 20 0 57 35 9 32 56 252 247 251 216 229 251 241 237 255 216 222 219 217 250 255 247 255 21 56 44 1 45 51 39 43 20 41 36 39 24 21 39 36 
55 35 24 37 44 40 21 4 41 31 34 32 28 14 35 32 0 53 41 19 49 39 11 38 22 53 83 250 255 138 149 207 255 255 255 167 110 85 92 230 248 255 249 254 74 33 46 33 29 22 29 46 10 23 47 29 45 16 40 33 
26 29 52 23 34 6 34 44 37 5 46 28 2 48 23 36 44 37 0 45 45 0 51 49 12 30 23 255 136 93 27 85 248 249 203 84 34 69 54 173 255 255 255 252 115 0 27 53 34 5 31 1 30 47 3 32 10 19 58 27 
39 46 3 26 11 47 8 8 14 49 18 41 33 41 50 33 6 29 42 32 36 38 24 27 35 36 82 255 104 214 137 33 186 255 174 0 229 174 110 78 252 252 249 242 106 34 42 0 52 34 45 22 42 31 28 42 24 22 35 26 
1 31 54 28 33 27 41 51 60 10 37 58 1 16 48 1 44 37 31 52 28 5 44 54 0 31 37 242 83 253 208 34 175 232 188 90 250 249 184 31 255 246 255 255 111 39 42 29 28 42 26 51 31 0 47 31 47 27 7 34 
36 42 20 1 36 51 28 0 38 34 6 27 38 3 51 22 24 52 25 0 43 39 0 34 32 55 24 251 188 173 240 107 116 104 146 107 214 255 191 0 255 255 254 247 107 38 30 42 3 31 9 26 44 33 0 34 4 37 25 44 
25 11 40 26 47 32 0 52 27 46 44 19 43 43 35 0 40 28 6 33 44 28 41 39 39 0 45 241 230 84 86 80 75 81 71 78 104 143 59 140 250 255 252 246 154 27 14 24 45 34 45 7 24 36 32 44 38 34 33 35 
40 21 49 32 1 51 41 20 48 23 14 23 36 56 29 42 49 38 30 48 47 22 17 17 23 41 23 219 216 146 67 80 77 65 72 65 74 90 67 140 254 249 254 255 174 11 43 49 0 41 28 40 47 5 48 33 28 24 25 32 
30 34 31 1 46 36 25 48 0 47 32 70 25 27 34 43 34 37 43 31 30 42 40 43 8 35 56 210 133 106 90 72 66 80 67 98 66 118 87 111 255 251 255 252 194 11 40 20 37 40 36 6 30 35 20 0 45 37 33 35 
53 33 9 50 32 31 5 37 41 44 62 64 29 71 40 67 41 26 63 83 70 37 5 32 33 30 29 221 237 104 65 68 74 68 66 66 96 100 129 141 240 253 255 255 243 46 11 35 39 45 43 21 37 35 45 42 33 25 22 30 
32 30 43 17 50 27 34 32 43 38 30 83 77 43 75 77 77 73 82 51 30 35 26 42 30 54 0 227 211 146 102 87 79 115 95 155 128 102 69 120 255 229 148 166 255 151 17 47 26 0 37 13 33 39 0 43 29 20 18 25 
21 18 27 37 3 46 39 38 22 0 70 76 81 65 64 75 59 82 89 52 35 50 44 31 14 25 38 183 138 70 166 132 92 120 115 86 112 75 74 85 180 255 186 155 230 191 54 32 44 53 25 26 53 31 37 1 42 34 29 32 
34 38 40 1 45 24 0 43 55 34 40 50 86 89 119 65 114 82 56 62 42 6 19 50 20 47 36 255 152 79 61 151 147 168 145 115 81 79 26 0 83 250 255 243 255 255 158 0 20 36 57 5 12 33 30 32 31 28 28 35 
33 2 40 34 23 53 27 46 31 0 38 66 85 79 92 79 72 100 77 52 35 31 38 3 45 34 151 243 150 40 71 72 109 65 81 68 33 0 0 6 30 187 244 255 240 251 255 72 44 0 28 11 35 35 4 45 38 34 34 36 
30 46 47 31 26 8 38 37 0 50 41 109 103 110 97 113 95 109 145 44 49 22 31 36 37 155 214 209 38 0 40 68 67 84 63 44 0 3 30 8 5 40 248 255 243 255 255 215 59 20 35 33 34 29 44 25 39 35 1 30 
29 1 21 12 35 38 19 40 37 28 0 118 112 102 118 107 131 108 165 9 13 72 39 4 213 255 255 79 4 0 0 40 43 45 0 1 6 0 0 7 0 26 219 254 255 255 254 246 76 16 44 55 24 50 39 1 45 24 54 39 
38 46 28 39 38 1 44 46 0 49 61 48 157 113 106 116 98 92 179 12 72 88 146 213 250 244 211 11 0 6 4 0 32 0 0 40 1 0 13 0 0 0 151 254 254 254 251 255 244 78 23 1 40 1 45 39 28 7 36 20 
40 28 39 14 30 40 36 28 25 27 34 71 140 128 104 98 121 110 146 252 250 255 255 255 255 247 126 23 0 6 38 5 0 6 0 2 0 2 0 0 29 1 76 254 237 252 254 255 251 234 51 46 28 44 15 8 36 39 3 32 
21 20 43 21 35 38 26 11 43 56 0 82 137 100 149 119 93 167 134 255 251 249 239 255 250 254 80 18 14 0 12 24 45 37 5 0 4 43 40 41 35 34 46 221 254 254 254 234 255 255 187 30 42 2 51 32 35 47 21 56 
26 44 33 40 37 1 39 34 23 46 27 80 154 101 147 148 121 105 147 246 251 252 255 244 254 189 104 36 37 6 21 19 38 0 0 11 0 21 42 38 66 78 24 81 229 230 254 254 255 236 246 125 37 16 34 32 25 12 43 20 
44 2 20 2 31 48 29 39 50 0 69 188 141 145 126 132 145 135 143 253 250 255 237 254 254 86 57 4 0 0 11 0 0 1 0 4 11 12 0 33 3 40 38 50 185 247 233 233 252 254 254 198 47 42 43 8 42 23 41 3 
27 44 43 32 43 32 37 2 20 57 209 227 184 148 173 153 152 151 184 255 249 255 244 218 224 41 1 1 34 6 2 0 38 0 4 21 7 30 8 1 0 4 34 34 81 254 244 240 249 254 254 253 156 1 44 25 35 49 20 47 
37 50 18 1 52 25 8 42 27 10 208 228 177 150 168 189 181 153 180 238 200 243 240 252 117 0 0 5 0 0 9 3 3 1 0 0 13 0 4 0 0 0 3 44 21 217 219 209 226 254 252 255 211 36 41 5 38 26 1 41 
28 1 71 42 28 45 16 44 51 30 75 170 189 233 201 203 162 174 179 159 255 255 207 220 0 0 2 0 2 3 35 0 0 38 12 0 30 9 0 8 3 2 0 0 13 157 205 231 245 220 255 254 251 46 38 32 25 23 34 25 
33 60 15 25 41 1 38 31 0 30 42 120 183 167 169 191 133 199 219 243 253 224 253 144 3 0 9 26 1 0 41 5 0 4 2 15 0 0 0 0 39 4 3 8 0 104 244 255 255 205 255 252 255 100 30 50 39 26 64 31 
35 1 39 19 21 48 35 45 23 56 0 144 198 233 186 219 190 212 172 200 246 250 255 50 32 6 4 0 31 3 1 33 10 0 1 40 0 0 13 2 30 0 1 28 0 57 255 255 254 220 253 254 251 188 22 40 37 5 24 26 
36 43 37 35 34 7 35 27 6 46 38 177 164 184 134 191 146 138 243 192 252 251 193 0 8 0 3 0 6 21 31 0 0 17 0 1 1 0 0 0 0 2 5 4 19 22 238 255 253 228 247 254 241 248 29 28 40 27 12 47 
14 48 15 3 53 27 30 54 31 16 45 149 196 221 200 216 151 179 224 162 255 255 133 31 0 30 0 0 20 5 35 3 0 29 8 0 4 28 26 0 2 0 24 0 31 4 255 255 254 219 248 254 254 254 52 31 15 37 16 42 
41 8 40 47 33 28 37 0 51 35 0 61 62 136 116 127 110 147 221 255 246 255 124 2 11 21 0 12 2 0 47 1 0 1 1 0 0 12 30 0 5 0 14 0 0 5 255 244 254 225 254 254 254 254 84 40 28 39 44 47 
32 34 37 39 22 4 53 29 25 48 29 29 39 36 37 10 30 83 246 255 255 252 61 3 0 0 8 0 2 7 27 0 13 28 4 0 39 0 0 12 0 43 0 5 0 39 218 255 254 246 254 254 240 254 104 42 34 3 34 29 
34 1 35 5 36 43 37 34 32 0 40 35 42 23 10 39 33 126 249 249 255 250 38 0 0 1 4 42 3 0 34 6 7 0 4 34 0 0 4 4 3 6 31 3 4 0 224 248 226 255 248 255 255 251 85 27 7 42 32 0 
43 31 36 45 32 19 48 13 49 23 46 25 0 49 27 38 29 102 255 185 209 255 18 19 46 2 0 0 14 7 53 0 0 31 8 4 12 10 0 35 0 0 11 0 0 40 237 255 242 221 255 217 248 249 75 32 22 33 34 38 
25 39 39 3 40 50 0 41 12 46 31 46 25 41 46 4 53 32 83 61 74 192 113 0 0 5 3 44 0 12 29 2 13 4 0 0 2 26 15 0 0 38 0 40 50 61 240 255 255 255 237 255 177 227 33 41 13 46 48 26 
37 34 20 26 39 38 45 35 10 44 32 0 56 29 0 37 26 116 79 78 58 78 114 39 6 0 0 4 0 0 41 5 0 1 6 6 1 1 0 7 0 7 0 64 66 80 170 244 247 239 255 255 241 114 77 33 32 24 26 39 
24 25 53 44 23 1 52 36 41 23 7 44 29 0 68 31 69 107 72 75 77 77 58 31 38 0 0 0 0 2 32 0 13 0 19 41 1 0 25 0 0 39 0 89 89 80 203 255 250 255 239 246 162 75 77 41 49 25 23 42 
42 7 27 1 49 40 16 1 33 40 25 39 54 71 59 105 101 77 70 82 60 76 78 85 19 8 12 46 0 7 6 0 19 18 0 0 46 20 0 8 0 13 42 65 64 98 151 216 250 254 206 156 74 70 63 33 41 35 32 27 
20 34 39 57 25 1 68 28 42 47 10 53 68 82 107 122 67 100 57 69 83 66 53 78 74 5 15 5 12 0 23 1 2 0 6 0 6 0 0 8 1 32 71 87 91 87 133 140 147 167 154 105 77 90 67 37 42 9 17 50 
39 51 14 7 39 38 23 41 34 0 38 81 101 81 78 60 74 63 74 84 55 82 85 68 109 31 1 14 0 0 5 3 3 0 12 0 0 0 14 0 4 0 73 74 93 87 98 112 108 116 103 68 74 65 79 71 36 32 42 42 
31 3 46 34 29 56 28 5 36 36 33 63 72 84 65 74 74 75 74 75 75 76 76 76 68 78 35 0 13 0 11 0 0 3 45 0 0 42 0 40 5 36 39 99 113 110 106 105 102 73 61 75 79 65 65 80 72 38 1 42 
40 35 17 51 25 6 31 29 37 32 25 116 84 59 93 68 68 70 66 73 67 73 69 72 78 67 68 11 3 0 2 43 10 26 1 9 48 0 4 0 0 0 89 170 100 75 89 69 76 77 76 75 78 80 75 67 86 89 44 37 
34 4 49 4 48 36 42 35 40 0 45 78 76 69 64 68 75 80 71 82 69 81 72 76 78 70 75 26 17 9 0 0 15 0 0 1 0 0 21 0 3 85 206 180 103 74 67 73 68 76 75 66 65 74 77 71 76 66 37 43 
27 54 18 25 37 29 40 4 37 37 34 34 107 62 90 71 71 77 65 79 62 76 64 70 64 85 76 73 37 0 0 5 0 48 0 2 9 14 0 52 110 245 255 140 111 90 67 87 74 71 71 73 69 65 70 79 67 84 71 43 
38 32 34 10 54 1 40 29 33 47 32 46 105 71 81 71 70 74 67 76 67 76 69 73 77 67 66 122 102 25 0 0 14 2 10 0 0 62 29 201 244 255 227 139 107 75 82 65 71 70 75 82 80 72 71 76 64 67 64 40 
27 15 36 32 28 45 27 46 26 3 33 94 77 89 49 71 71 71 73 72 76 75 77 77 87 55 74 113 148 172 101 53 36 21 77 135 141 172 255 255 255 251 204 157 103 63 83 58 70 76 73 64 66 76 76 67 75 38 41 43 
30 38 39 31 45 27 53 0 26 35 10 112 114 97 107 91 77 70 81 64 79 62 72 65 68 74 96 104 135 241 254 244 254 252 254 240 255 255 255 249 238 255 219 157 106 85 72 74 77 74 71 71 76 75 63 48 35 30 37 0 
34 1 35 34 4 26 14 33 41 37 28 47 144 146 124 130 110 97 112 82 102 72 86 74 66 74 72 138 159 206 255 255 254 240 248 254 253 254 253 253 255 251 212 154 105 109 68 75 77 66 81 117 122 81 38 22 47 29 50 28 
43 34 39 33 49 38 38 25 44 39 0 46 33 60 92 103 155 143 146 140 115 105 98 76 104 115 147 143 176 226 248 210 221 194 179 189 172 199 196 168 150 140 227 190 128 113 109 103 102 120 141 145 59 26 24 49 3 27 5 45 
22 16 23 15 32 30 45 45 0 36 30 51 27 42 42 25 35 53 101 138 143 151 157 143 156 134 141 209 168 140 53 24 5 28 41 42 2 12 28 44 1 50 107 176 165 150 168 122 151 149 102 31 1 45 46 0 35 43 31 44 
42 38 42 23 25 14 29 32 30 43 50 20 11 33 38 38 42 23 18 16 20 70 142 178 149 173 188 182 52 24 2 48 36 29 1 20 46 63 26 8 49 29 32 194 210 130 137 170 186 87 41 48 53 17 25 47 27 19 32 20 
35 36 48 37 42 28 38 38 41 3 32 4 34 33 16 36 28 24 39 44 27 29 48 49 108 93 102 38 15 33 40 24 4 48 41 39 36 26 4 37 30 39 37 42 77 119 91 94 45 35 35 1 25 27 34 0 44 18 45 1 
