/* XPM */
static char *lignes[]={
"32 32 5 1", /* A modifier si vous voulez ajouter plusieurs couleurs*/
". c None",
"# c #f0f000",
"a c #ff0000",
"v c #80FF00",
"b c #3333FF",
"................................",
"................................",
"bbbbbbbbbbbbbbbbbbbbbbbbbbbbbbbb",
"................................",
"................................",
"................................",
"...############.................",
"................................",
"................................",
"................................",
"..................a.............",
"..................a.............",
"..................a.............",
"..................a.............",
"..................a.............",
"..................a.............",
"..................a.............",
"..................a.............",
"..................a.............",
"..................a.............",
"................................",
"................................",
"vvvvvvvvvvvvvvvvvvvvvvvvvvvvvvvv",
"................................",
"................................",
"................................",
"................................",
"................................",
"................................",
"................................",
"................................",
"................................"};
