#define width 32
#define height 16
static unsigned char bits[] __attribute__ ((section ("image"))) = {
   0x00, 0xff, 0xff, 0x00, 0xc0, 0xff, 0xff, 0x03, 0xf0, 0x03, 0xc0, 0x0f,
   0xfc, 0x00, 0x00, 0x3f, 0x3f, 0x00, 0x00, 0xfc, 0x0f, 0x3c, 0x3c, 0xf0,
   0x0f, 0x0c, 0x0c, 0xf0, 0x0f, 0xc0, 0x00, 0xf0, 0x0f, 0xc0, 0xc0, 0xf0,
   0x0f, 0x00, 0xf0, 0xf0, 0x0f, 0x0c, 0x3c, 0xf0, 0x3f, 0xf0, 0x0f, 0xf0,
   0xfc, 0x00, 0x00, 0xfc, 0xf0, 0x03, 0x00, 0x3f, 0xc0, 0xff, 0xff, 0x0f,
   0x00, 0xff, 0xff, 0x03};
